<?xml version="1.0" encoding="UTF-8" standalone="no"?>
<svg
   xmlns:dc="http://purl.org/dc/elements/1.1/"
   xmlns:cc="http://creativecommons.org/ns#"
   xmlns:rdf="http://www.w3.org/1999/02/22-rdf-syntax-ns#"
   xmlns:svg="http://www.w3.org/2000/svg"
   xmlns="http://www.w3.org/2000/svg"
   xmlns:sodipodi="http://sodipodi.sourceforge.net/DTD/sodipodi-0.dtd"
   xmlns:inkscape="http://www.inkscape.org/namespaces/inkscape"
   width="560pt"
   height="397pt"
   viewBox="0 0 560 397"
   version="1.1"
   id="svg7"
   sodipodi:docname="TG1.svg"
   inkscape:version="0.92.1 r15371">
  <metadata
     id="metadata13">
    <rdf:RDF>
      <cc:Work
         rdf:about="">
        <dc:format>image/svg+xml</dc:format>
        <dc:type
           rdf:resource="http://purl.org/dc/dcmitype/StillImage" />
      </cc:Work>
    </rdf:RDF>
  </metadata>
  <defs
     id="defs11" />
  <sodipodi:namedview
     pagecolor="#ffffff"
     bordercolor="#666666"
     borderopacity="1"
     objecttolerance="10"
     gridtolerance="10"
     guidetolerance="10"
     inkscape:pageopacity="0"
     inkscape:pageshadow="2"
     inkscape:window-width="1600"
     inkscape:window-height="837"
     id="namedview9"
     showgrid="false"
     inkscape:zoom="0.44584382"
     inkscape:cx="444.08745"
     inkscape:cy="271.35704"
     inkscape:window-x="-8"
     inkscape:window-y="-8"
     inkscape:window-maximized="1"
     inkscape:current-layer="svg7" />
  <g
     id="#000000ff"
     style="fill:#ffffff;fill-opacity:1">
    <path
       fill="#000000"
       opacity="1.00"
       d=" M 0.00 0.00 L 86.11 0.00 C 86.09 25.71 86.15 51.42 86.08 77.13 C 104.78 77.15 123.48 77.18 142.19 77.11 C 142.23 104.87 142.20 132.63 142.20 160.38 C 123.50 160.38 104.80 160.37 86.10 160.39 C 86.11 185.79 86.12 211.20 86.09 236.61 C 110.47 236.65 134.85 236.57 159.22 236.65 C 159.28 183.15 159.22 129.65 159.25 76.14 C 240.42 76.15 321.59 76.15 402.76 76.14 C 402.80 103.55 402.70 130.95 402.80 158.35 C 350.34 158.40 297.88 158.37 245.42 158.37 C 245.43 184.45 245.42 210.54 245.42 236.63 C 269.14 236.61 292.86 236.61 316.58 236.63 C 316.58 218.24 316.59 199.85 316.57 181.45 C 345.31 181.44 374.04 181.44 402.78 181.45 C 402.74 229.59 402.78 277.73 402.75 325.87 C 268.50 325.87 134.25 325.87 0.00 325.87 L 0.00 0.00 Z"
       id="path2"
       style="fill:#ffffff;fill-opacity:1" />
    <path
       fill="#000000"
       opacity="1.00"
       d=" M 419.82 75.11 C 466.55 75.19 513.27 75.12 560.00 75.14 L 560.00 397.00 L 473.89 397.00 C 473.90 317.13 473.87 237.26 473.90 157.39 C 455.87 157.36 437.84 157.38 419.81 157.38 C 419.80 129.95 419.77 102.53 419.82 75.11 Z"
       id="path4"
       style="fill:#ffffff;fill-opacity:1" />
  </g>
</svg>
